<?xml version="1.0" standalone="no"?>
<!DOCTYPE svg PUBLIC "-//W3C//DTD SVG 20010904//EN"
 "http://www.w3.org/TR/2001/REC-SVG-20010904/DTD/svg10.dtd">
<svg version="1.0" xmlns="http://www.w3.org/2000/svg"
 width="1024.000000pt" height="1024.000000pt" viewBox="0 0 1024.000000 1024.000000"
 preserveAspectRatio="xMidYMid meet">

<g transform="translate(0.000000,1024.000000) scale(0.100000,-0.100000)"
fill="#000000" stroke="none">
<path d="M4865 9849 c-417 -43 -819 -178 -1171 -394 -120 -74 -300 -207 -391
-289 l-61 -56 -711 0 -711 0 0 -2242 c0 -1431 4 -2292 10 -2378 77 -1013 552
-1930 1305 -2516 133 -103 385 -273 680 -459 323 -203 1024 -654 1210 -777 54
-37 104 -64 110 -60 6 4 144 95 306 203 162 108 481 315 709 459 704 444 747
472 883 574 242 181 429 358 593 562 376 468 636 1046 733 1629 52 312 51 244
51 2710 l0 2295 -703 0 -703 0 -66 59 c-408 362 -895 584 -1458 666 -128 19
-492 27 -615 14z m436 -659 c456 -45 887 -249 1219 -576 l85 -84 598 0 597 0
0 -885 0 -885 -2685 0 -2685 0 0 885 0 885 601 0 602 0 81 78 c453 434 1010
639 1587 582z m-986 -2651 c17 -16 20 -32 19 -97 -1 -166 -3 -187 -24 -210
-29 -31 -83 -30 -115 3 -24 23 -25 29 -25 158 0 140 4 152 50 170 25 10 74 -2
95 -24z m997 21 c38 -11 64 -41 53 -60 -10 -16 -47 -12 -60 6 -17 24 -55 9
-55 -22 -1 -13 -1 -60 -1 -104 0 -44 0 -86 1 -94 0 -17 25 -27 45 -20 10 4 15
20 15 50 0 37 -3 44 -20 44 -15 0 -20 7 -20 26 0 24 2 25 48 22 l47 -3 3 -73
c3 -66 1 -74 -22 -97 -35 -35 -97 -35 -131 0 -24 23 -25 29 -25 158 0 115 2
136 18 149 32 29 52 32 104 18z m-1440 -67 c3 -66 4 -67 16 -38 45 103 46 105
68 105 36 0 37 -15 4 -79 -16 -33 -30 -67 -30 -75 0 -8 16 -51 35 -97 19 -45
32 -86 29 -90 -3 -5 -15 -9 -28 -9 -17 0 -28 13 -51 60 -15 32 -32 57 -36 54
-4 -2 -5 -29 -2 -60 l6 -55 -33 3 -34 3 -4 173 -4 172 31 0 30 0 3 -67z m718
30 c-1 -21 -2 -88 -1 -150 l1 -112 48 -3 c39 -3 47 -6 47 -23 0 -18 -8 -20
-77 -23 l-78 -3 0 176 0 175 31 0 c29 0 30 -2 29 -37z m425 12 c0 -17 -8 -20
-47 -23 l-48 -3 0 -45 0 -44 41 0 c38 0 40 -1 37 -27 -3 -24 -8 -28 -40 -31
l-38 -3 0 -50 0 -49 56 0 c52 0 55 -1 52 -22 -3 -22 -8 -23 -83 -23 l-80 0 -3
173 -2 173 77 -3 c70 -3 78 -5 78 -23z m603 -152 l2 -173 -30 0 -30 0 0 176 0
175 28 -3 27 -3 3 -172z m244 35 c3 -139 4 -143 25 -146 22 -3 22 -2 25 140
l3 143 28 3 27 3 0 -151 c0 -150 0 -151 -26 -175 -33 -30 -73 -32 -108 -4
l-26 20 0 155 0 154 25 0 24 0 3 -142z m383 67 c15 -41 30 -73 34 -71 3 2 17
36 31 76 22 65 27 71 50 68 l25 -3 0 -170 0 -170 -27 -3 -28 -3 -1 88 0 88
-18 -45 c-22 -54 -51 -61 -65 -15 -18 61 -21 58 -24 -28 l-3 -88 -27 3 -27 3
-3 173 -2 172 29 0 c27 0 31 -5 56 -75z m-3230 -405 c18 -29 -64 -60 -87 -33
-13 16 -3 29 27 36 35 8 54 7 60 -3z m988 -31 c26 -32 18 -63 -15 -67 -19 -2
-28 1 -28 11 0 8 -7 20 -15 27 -21 18 -47 -5 -43 -39 2 -20 14 -31 47 -47 59
-29 71 -47 71 -115 0 -50 -3 -60 -26 -78 -51 -40 -135 -15 -146 43 -9 47 35
63 54 21 18 -41 52 -30 56 18 3 36 1 38 -41 56 -55 24 -77 54 -77 106 0 45 21
82 53 94 31 12 89 -5 110 -30z m320 32 c54 -1 57 -2 57 -26 0 -22 -4 -25 -35
-25 l-35 0 0 -150 0 -150 -30 0 -30 0 0 150 0 150 -35 0 c-30 0 -35 3 -35 23
0 33 8 38 49 33 20 -3 62 -5 94 -5z m1014 -3 c5 -7 8 -87 7 -178 l-2 -165 -29
0 -28 0 -3 169 c-2 129 1 171 10 178 19 11 34 10 45 -4z m381 -25 c28 -31 26
-67 -5 -71 -17 -3 -26 3 -33 22 -13 34 -38 33 -51 -1 -11 -30 -5 -38 71 -86
33 -22 35 -26 38 -86 3 -72 -10 -95 -60 -106 -56 -13 -116 33 -106 81 5 31 46
30 58 0 13 -35 47 -35 56 -1 8 31 -16 71 -48 80 -48 15 -68 45 -68 100 0 41 5
56 23 72 42 39 87 37 125 -4z m712 -32 c7 -31 23 -105 36 -165 13 -60 24 -113
24 -118 0 -5 -12 -8 -27 -6 -21 2 -28 11 -37 41 -6 21 -14 38 -18 38 -5 -1
-22 -1 -38 -1 -31 0 -34 -3 -44 -52 -5 -21 -12 -28 -31 -28 -13 0 -26 3 -28 8
-5 7 66 323 76 339 3 5 22 7 41 5 34 -4 35 -6 46 -61z m-3161 37 c5 -13 12
-50 15 -83 4 -33 10 -71 13 -85 6 -22 7 -21 17 15 8 29 18 41 33 43 18 3 22
-3 28 -38 4 -23 9 -39 13 -36 3 3 11 47 18 97 13 96 22 116 50 105 20 -8 17
-49 -16 -229 -22 -116 -23 -118 -48 -115 -19 2 -28 12 -37 38 l-12 35 -7 -38
c-6 -34 -10 -38 -34 -35 -26 3 -28 6 -59 158 -17 85 -29 163 -26 173 6 25 42
21 52 -5z m1413 -148 c20 -91 37 -169 38 -173 0 -5 -12 -7 -27 -5 -23 2 -30
10 -37 41 -9 35 -11 37 -52 37 -40 0 -42 -1 -51 -37 -7 -31 -14 -39 -36 -41
-16 -2 -27 1 -27 9 0 12 67 302 75 327 3 9 18 12 42 10 l38 -3 37 -165z m305
70 l43 -95 0 98 0 97 30 0 30 0 0 -175 0 -175 -26 0 c-26 0 -27 2 -102 170 -9
21 -11 8 -11 -72 l-1 -98 -30 0 -30 0 0 176 0 175 27 -3 c24 -3 32 -15 70 -98z
m1013 36 c0 -56 2 -64 21 -69 26 -7 23 -53 -4 -51 -14 2 -17 -7 -17 -62 l0
-64 46 0 c41 0 45 -2 42 -22 -3 -20 -10 -23 -51 -26 -32 -2 -57 2 -73 13 -21
14 -24 23 -24 79 0 58 -2 64 -26 75 -31 14 -29 45 4 49 20 3 22 9 22 73 l0 69
30 0 30 0 0 -64z m696 52 c5 -7 16 -56 25 -108 15 -92 20 -97 33 -37 4 18 13
27 25 27 20 0 31 -19 31 -54 0 -13 3 -26 8 -30 4 -4 14 41 22 101 13 90 18
108 34 111 10 2 22 0 27 -5 8 -8 -11 -157 -31 -247 -5 -23 -11 -53 -15 -68 -4
-22 -11 -28 -30 -28 -20 0 -27 6 -32 30 -8 43 -20 45 -27 5 -6 -29 -11 -35
-32 -35 -13 0 -27 6 -29 13 -10 27 -62 323 -58 330 7 12 41 8 49 -5z m508 4
c2 -4 16 -61 30 -127 15 -66 31 -139 36 -162 13 -55 14 -53 -19 -53 -25 0 -29
4 -35 40 -6 40 -7 40 -50 40 -43 0 -44 0 -50 -40 -5 -34 -10 -40 -31 -40 -13
0 -26 4 -29 9 -4 5 7 63 23 128 16 65 33 136 37 158 3 22 9 43 11 48 6 9 70 9
77 -1z m-4185 -62 c22 -11 32 -35 25 -55 -8 -21 -26 -19 -47 6 -15 17 -21 18
-33 8 -24 -20 -12 -52 26 -71 47 -24 60 -44 60 -95 0 -53 -26 -83 -73 -83 -46
0 -77 24 -77 61 0 36 30 40 52 7 19 -28 48 -18 48 17 0 20 -9 30 -45 47 -37
18 -47 29 -55 59 -11 39 -6 63 18 92 17 19 72 23 101 7z m657 -224 c9 -24 -15
-58 -39 -54 -17 2 -23 11 -25 36 -3 30 -1 32 28 32 17 0 33 -6 36 -14z m953
-181 c16 -8 31 -22 35 -30 3 -9 6 -73 6 -143 0 -115 -2 -128 -22 -149 -29 -31
-99 -32 -128 -3 -18 18 -20 33 -20 158 0 75 4 142 8 149 9 14 49 31 75 32 10
1 31 -6 46 -14z m354 3 c31 -16 46 -39 47 -70 0 -23 -4 -28 -25 -28 -18 0 -28
7 -35 25 -13 34 -47 34 -56 0 -9 -37 0 -52 50 -73 24 -11 49 -29 55 -40 14
-26 14 -107 1 -132 -16 -30 -81 -46 -116 -29 -30 15 -60 62 -49 79 11 19 53
11 60 -11 5 -14 14 -19 28 -17 17 2 23 11 25 41 3 36 1 38 -42 58 -25 11 -52
29 -61 42 -18 25 -20 86 -4 121 19 41 78 58 122 34z m335 2 c70 0 72 -1 72
-25 0 -22 -4 -25 -35 -25 l-35 0 0 -150 0 -150 -31 0 -30 0 1 108 c2 207 5
192 -35 192 -30 0 -35 3 -35 23 0 30 10 39 35 33 11 -3 53 -6 93 -6z m397 -10
c3 -4 -9 -34 -25 -66 -16 -33 -30 -64 -30 -71 0 -6 16 -49 35 -95 38 -89 38
-111 3 -106 -17 2 -31 19 -51 61 -32 69 -50 66 -45 -6 l3 -52 -32 -3 -33 -3 0
175 0 176 30 0 c28 0 29 -1 32 -57 l3 -58 23 50 c13 27 28 55 33 61 10 12 45
8 54 -6z m-1527 -50 c-1 -33 -1 -60 2 -60 3 0 16 27 30 60 22 53 28 60 53 60
35 0 34 -13 -4 -87 l-31 -61 41 -92 c22 -51 38 -96 35 -101 -3 -5 -16 -9 -28
-9 -19 0 -30 14 -57 68 l-34 67 -3 -67 c-3 -68 -3 -68 -32 -68 l-30 0 0 175 0
175 31 0 31 0 -4 -60z m1787 -115 l0 -170 -26 -3 c-15 -2 -28 2 -31 10 -2 7
-2 86 0 176 l4 163 26 -3 27 -3 0 -170z m1825 -562 c0 -400 -43 -715 -136
-1006 -192 -593 -560 -1064 -1177 -1504 -239 -170 -1331 -895 -1364 -905 -17
-5 -1171 752 -1418 930 -242 175 -520 433 -672 625 -219 274 -401 630 -487
947 -78 290 -104 485 -113 838 l-6 262 2686 0 2687 0 0 -187z"/>
<path d="M5040 8804 c-120 -32 -211 -93 -271 -180 -17 -25 -50 -54 -80 -70
-103 -57 -104 -158 -1 -201 27 -11 39 -26 61 -76 15 -34 34 -81 41 -105 12
-39 12 -44 -8 -65 -30 -31 -30 -115 -1 -186 26 -61 20 -72 -51 -96 -27 -9 -68
-33 -92 -54 -24 -21 -61 -48 -83 -59 -22 -12 -47 -27 -55 -34 -74 -61 -64
-160 18 -173 20 -4 49 -9 64 -11 19 -4 48 -32 98 -95 72 -90 131 -142 225
-196 121 -71 189 -80 310 -43 190 59 318 180 367 348 19 66 25 74 62 95 71 39
76 113 9 140 -47 18 -67 41 -83 92 -24 76 -49 113 -127 184 -87 80 -103 110
-103 188 0 57 10 86 41 116 18 16 21 17 41 2 47 -32 141 -13 159 32 18 48 -4
98 -63 140 -31 22 -56 51 -65 72 -53 126 -182 225 -323 245 -19 3 -60 -1 -90
-10z m197 -63 c76 -39 133 -97 173 -177 17 -36 43 -72 58 -81 55 -34 72 -56
72 -90 0 -27 -5 -35 -26 -43 -33 -13 -67 -4 -95 26 -23 25 -60 24 -86 -2 -17
-17 -16 -25 2 -18 19 8 19 -6 2 -31 -11 -14 -22 -17 -45 -12 -17 4 -34 2 -37
-3 -9 -15 -35 -12 -35 4 0 7 7 27 15 42 8 16 15 43 15 61 0 22 6 33 18 37 11
4 29 17 42 31 21 22 22 27 10 55 -7 18 -24 38 -37 47 -25 16 -148 43 -198 43
-17 0 -36 5 -42 11 -17 17 -39 0 -98 -80 -42 -55 -55 -80 -55 -107 0 -47 23
-88 62 -111 26 -15 37 -32 52 -79 18 -57 68 -134 87 -134 5 0 8 3 8 8 -5 29 3
32 39 13 20 -11 67 -33 104 -50 167 -74 261 -167 297 -296 15 -53 29 -69 76
-91 56 -27 60 -59 8 -80 -46 -20 -46 -20 -78 -115 -57 -169 -149 -257 -338
-318 -114 -38 -188 -26 -310 52 -79 51 -140 109 -203 194 -54 73 -70 83 -157
98 -45 7 -54 24 -37 66 16 38 94 86 114 70 15 -13 26 -5 26 20 0 28 64 75 119
89 81 19 98 59 61 145 -25 58 -26 125 -2 155 l17 21 37 -33 c37 -32 38 -35 48
-137 5 -57 10 -109 10 -117 0 -10 7 -13 24 -8 21 5 24 1 30 -36 10 -62 33
-100 72 -116 30 -13 38 -13 64 1 41 21 62 67 70 155 4 41 12 87 18 102 l11 27
57 -32 c31 -18 61 -41 66 -53 5 -11 19 -26 30 -33 19 -12 19 -10 -3 30 -31 56
-140 130 -234 159 -127 40 -189 61 -217 76 -27 14 -84 82 -95 114 -3 8 -19 47
-35 87 -26 63 -33 73 -68 87 -86 34 -88 100 -5 137 31 14 58 37 86 75 41 56
94 100 164 137 106 54 177 57 272 8z m-58 -219 c32 -26 35 -33 33 -78 -3 -56
-20 -106 -35 -101 -12 4 -41 56 -56 98 -13 37 -40 29 -73 -21 -28 -41 -64 -50
-98 -22 -21 17 -23 23 -14 53 7 26 16 35 37 37 16 2 35 15 47 33 12 16 27 29
34 29 8 0 19 7 26 15 10 12 16 13 39 0 14 -7 42 -27 60 -43z m89 27 c17 -16
32 -34 32 -40 0 -19 -19 -8 -50 31 -38 47 -28 52 18 9z m-172 -185 c6 -39 9
-44 28 -39 11 2 15 2 9 -1 -7 -3 -13 -12 -13 -20 0 -9 -4 -12 -10 -9 -13 8
-13 -61 0 -86 12 -22 3 -24 -21 -6 -18 13 -41 62 -53 111 -6 24 -4 28 10 22
13 -5 15 -2 10 19 -7 28 10 69 24 60 5 -3 12 -26 16 -51z m124 -99 c12 -14 15
-14 31 1 16 15 19 14 32 -8 16 -25 30 -148 17 -148 -4 0 -18 8 -31 19 -13 10
-41 26 -61 36 -39 18 -45 29 -28 55 5 9 5 19 -1 27 -12 14 -4 33 15 33 8 0 19
-7 26 -15z m-151 -261 c2 -2 -1 -9 -7 -17 -6 -7 -15 -25 -21 -40 -9 -23 -8
-27 8 -27 11 0 33 14 49 30 34 34 44 36 62 15 15 -18 7 -54 -18 -85 -18 -22
-21 -23 -65 -11 -25 7 -57 25 -71 40 -22 23 -56 97 -56 122 0 6 107 -18 119
-27z m71 -219 c-9 -56 -16 -65 -55 -65 -28 0 -37 6 -50 30 -8 16 -15 39 -15
52 0 22 4 23 63 23 l63 0 -6 -40z"/>
<path d="M4943 8639 c-17 -11 -48 -44 -68 -73 -45 -66 -58 -151 -30 -205 23
-45 29 -34 10 19 -15 42 -12 110 5 110 4 0 10 13 13 30 4 17 29 53 60 85 57
59 59 66 10 34z"/>
<path d="M4830 8320 c0 -23 38 -90 52 -90 8 0 -19 67 -38 95 -14 19 -14 19
-14 -5z"/>
<path d="M4943 8274 c4 -27 16 -79 28 -116 19 -61 24 -69 63 -87 52 -26 81
-27 45 -3 -57 38 -87 89 -109 190 -16 70 -35 82 -27 16z"/>
<path d="M5286 7795 c-3 -8 -1 -15 4 -15 13 0 22 18 11 24 -5 3 -11 -1 -15 -9z"/>
<path d="M5308 7779 c-28 -27 -39 -65 -15 -56 6 3 19 8 27 11 21 9 60 -29 60
-58 0 -38 -26 -51 -96 -49 -58 2 -66 -1 -106 -33 -69 -55 -88 -49 -190 56 -83
86 -109 103 -123 79 -4 -5 -18 -14 -31 -19 -13 -5 -29 -21 -34 -35 -5 -14 -16
-25 -24 -25 -23 0 -39 -38 -32 -74 11 -56 60 -120 126 -164 43 -29 57 -44 47
-48 -19 -7 -65 17 -96 50 -25 26 -44 27 -34 0 10 -26 94 -84 123 -84 15 0 36
10 50 25 28 29 54 31 139 9 69 -17 105 -11 175 30 80 47 156 180 156 273 0 44
-5 58 -31 88 -46 52 -59 55 -91 24z m-342 -178 c90 -99 157 -113 236 -50 32
25 45 29 102 29 36 0 66 -3 66 -7 0 -15 -62 -101 -97 -135 -21 -20 -55 -44
-75 -52 -35 -15 -39 -14 -95 11 -43 21 -71 27 -111 25 -85 -3 -142 27 -188
100 -27 42 -31 80 -10 97 12 10 87 37 110 40 5 1 33 -25 62 -58z"/>
<path d="M5483 7627 c-12 -49 -36 -111 -53 -139 -17 -27 -29 -53 -26 -56 3 -3
1 -11 -5 -19 -6 -7 -7 -13 -2 -13 33 0 117 209 111 277 -3 34 -6 28 -25 -50z"/>
<path d="M4227 6504 c-10 -10 -8 -206 2 -222 5 -8 17 -12 27 -10 17 3 19 14
19 118 0 108 -1 115 -20 118 -12 2 -24 0 -28 -4z"/>
<path d="M6366 5953 c-3 -21 -9 -48 -12 -60 -5 -20 -2 -23 21 -23 27 0 27 0
20 53 -9 66 -20 79 -29 30z"/>
<path d="M4588 5932 l-16 -62 29 0 c33 0 34 5 16 75 l-13 50 -16 -63z"/>
<path d="M7157 5959 c-4 -19 -10 -46 -13 -61 -6 -25 -4 -28 21 -28 26 0 27 1
20 43 -4 23 -11 51 -15 61 -5 16 -8 13 -13 -15z"/>
<path d="M4559 5548 c0 -7 -2 -47 -4 -88 -5 -97 5 -145 30 -145 12 0 21 10 26
26 8 31 4 193 -6 209 -9 14 -45 13 -46 -2z"/>
<path d="M4940 4765 c0 -3 6 -16 14 -28 19 -30 76 -194 76 -219 0 -19 -4 -20
-42 -14 -24 4 -84 27 -135 50 l-91 44 6 -37 c10 -50 9 -216 -1 -274 l-8 -47
59 35 c46 26 196 85 218 85 11 0 0 -65 -25 -143 l-27 -89 -56 -22 c-82 -34
-120 -60 -185 -130 -52 -55 -86 -109 -114 -183 -8 -22 -10 -22 -54 -8 -67 20
-126 73 -168 152 -23 43 -37 60 -37 47 0 -38 -39 -147 -71 -203 l-31 -54 -34
53 c-29 45 -63 124 -89 205 -6 17 -9 14 -20 -18 -25 -73 -108 -168 -186 -214
l-27 -16 86 -29 c95 -32 158 -66 145 -79 -4 -4 -58 -34 -119 -66 l-112 -59 55
-34 c59 -37 120 -106 155 -174 l21 -41 13 47 c14 55 64 167 94 208 l21 30 193
-175 192 -175 -4 -59 c-2 -34 0 -61 6 -65 6 -3 43 -10 82 -15 52 -7 80 -16
106 -36 45 -34 53 -27 23 21 -20 33 -21 37 -4 31 10 -4 51 -10 91 -14 59 -5
74 -3 75 8 1 8 3 41 4 74 2 55 -1 64 -35 110 -90 123 -130 225 -130 336 0 39
5 89 12 110 15 51 69 114 122 142 57 30 165 30 221 0 177 -95 189 -320 29
-554 -54 -78 -54 -79 -54 -154 l0 -75 43 0 c23 1 61 5 85 9 44 9 50 4 31 -31
-16 -29 -4 -33 33 -10 34 21 161 47 179 37 5 -4 9 19 9 54 0 72 -14 54 218
266 136 124 176 155 183 144 26 -39 53 -98 78 -176 l28 -85 26 45 c39 65 124
155 170 179 l41 20 -124 66 -123 65 59 30 c32 17 90 40 128 52 l68 21 -58 41
c-77 54 -105 84 -147 161 l-35 63 -7 -38 c-8 -46 -64 -169 -92 -203 l-21 -24
-36 71 c-19 39 -43 99 -52 132 -10 34 -20 61 -23 61 -3 0 -14 -20 -24 -45 -26
-62 -88 -129 -149 -159 -29 -14 -57 -26 -63 -26 -6 0 -24 30 -39 66 -50 114
-160 216 -294 270 -56 22 -57 23 -79 90 -13 37 -26 89 -29 115 l-6 47 42 -9
c59 -13 151 -52 196 -83 21 -14 39 -24 41 -22 2 2 -1 15 -7 30 -25 67 -23 186
6 300 l7 29 -54 -31 c-59 -33 -166 -72 -200 -72 -19 0 -20 4 -14 43 8 46 61
194 78 215 9 11 2 12 -39 5 -62 -10 -207 -10 -256 0 -21 4 -38 5 -38 2z m270
-52 c0 -1 -9 -26 -20 -55 -19 -53 -50 -171 -50 -196 0 -23 123 4 243 53 18 7
18 3 12 -57 -4 -36 -3 -80 3 -101 6 -20 9 -37 7 -37 -1 0 -27 11 -58 25 -57
25 -162 55 -192 55 -16 0 -17 -8 -12 -68 4 -38 16 -95 27 -127 11 -32 20 -61
20 -64 0 -3 -37 -5 -82 -4 -63 1 -82 5 -79 15 52 184 63 248 41 248 -33 0
-125 -27 -185 -54 l-70 -32 0 106 0 107 43 -18 c49 -21 129 -44 186 -54 l39
-6 -7 43 c-4 24 -20 83 -37 131 -16 49 -29 89 -29 90 0 1 45 2 100 2 55 0 100
-1 100 -2z m63 -643 c231 -87 361 -322 303 -550 -21 -80 -75 -194 -121 -255
l-36 -46 22 -30 c18 -26 19 -33 8 -44 -23 -21 -106 -45 -159 -45 l-50 0 0 45
c0 36 7 54 36 92 81 107 127 233 127 355 0 68 -5 87 -32 143 -39 79 -96 130
-170 152 -158 45 -328 -49 -365 -202 -13 -51 -7 -178 10 -235 20 -68 61 -149
108 -215 29 -41 36 -59 36 -98 l0 -48 -47 7 c-54 7 -152 39 -166 53 -6 6 -2
20 12 37 11 15 21 30 21 34 0 4 -24 43 -54 87 -79 119 -101 191 -101 334 0
113 1 116 38 193 64 128 189 228 319 256 67 14 196 4 261 -20z m926 -282 c22
-19 41 -37 41 -40 0 -3 -12 -9 -27 -12 -37 -9 -193 -86 -193 -96 0 -13 34 -37
123 -84 48 -26 87 -49 87 -51 0 -1 -27 -30 -60 -64 -33 -34 -60 -66 -60 -71 0
-27 -19 -5 -28 33 -15 56 -86 172 -106 172 -8 0 -80 -58 -158 -130 -79 -71
-136 -120 -128 -108 31 43 218 269 233 282 10 7 17 17 17 21 0 14 -104 69
-176 94 l-67 24 29 15 c16 8 51 38 78 67 26 28 49 50 50 48 1 -2 15 -32 31
-67 39 -84 81 -142 98 -135 17 6 103 149 112 187 l7 27 28 -38 c15 -21 46 -54
69 -74z m-2032 29 c35 -66 88 -137 104 -137 13 0 75 98 95 152 10 23 19 45 21
47 2 3 18 -12 35 -33 17 -21 48 -51 69 -66 l38 -27 -83 -32 c-45 -17 -94 -42
-108 -54 l-27 -22 100 -125 c139 -174 153 -195 83 -129 -72 68 -222 199 -229
199 -10 0 -89 -126 -109 -174 l-21 -52 -70 72 -70 72 113 56 c61 31 112 60
112 64 0 17 -37 42 -110 75 -41 19 -82 37 -91 40 -13 4 -3 19 45 70 33 36 63
65 66 66 3 0 20 -27 37 -62z m443 -170 c0 -141 34 -247 118 -374 33 -50 34
-55 19 -70 -13 -13 -19 -14 -31 -4 -13 11 -212 262 -314 396 l-33 44 26 17
c25 16 190 83 208 84 4 0 7 -42 7 -93z m1095 67 c44 -14 101 -37 128 -50 l48
-25 -46 -57 c-25 -31 -90 -113 -143 -181 -53 -69 -118 -148 -144 -175 l-46
-51 -12 27 c-11 23 -9 30 13 60 80 104 134 282 123 405 -3 40 -5 73 -3 73 1 0
38 -12 82 -26z m-165 -589 c0 -33 -2 -35 -34 -35 -19 0 -47 -5 -62 -10 -44
-17 -38 -5 11 20 24 13 52 31 61 41 23 25 24 24 24 -16z m-765 -24 c28 -15 32
-20 15 -17 -14 3 -40 6 -57 6 -30 0 -33 3 -33 32 0 29 1 30 18 16 9 -9 35 -25
57 -37z"/>
<path d="M4859 3961 c-20 -17 -53 -55 -74 -86 -31 -44 -36 -58 -26 -68 10 -9
16 -7 29 13 10 13 45 53 80 88 34 34 62 67 62 72 0 19 -36 9 -71 -19z"/>
<path d="M5065 3982 c-76 -3 -107 -10 -100 -22 4 -6 44 -8 103 -4 60 4 112 2
137 -5 32 -9 42 -8 54 4 13 12 13 15 0 19 -20 7 -123 11 -194 8z"/>
<path d="M5310 3978 c1 -7 37 -51 80 -97 60 -62 81 -80 86 -68 8 21 -45 97
-100 141 -45 37 -66 45 -66 24z"/>
<path d="M4713 3733 c-10 -45 -9 -157 0 -195 5 -18 14 -28 26 -28 18 0 18 4 9
38 -10 35 -6 136 8 195 5 23 3 27 -14 27 -16 0 -23 -9 -29 -37z"/>
<path d="M5476 3739 c4 -19 8 -79 9 -133 0 -105 13 -134 34 -75 25 73 4 230
-33 237 -17 4 -18 0 -10 -29z"/>
<path d="M4745 3469 c-13 -41 103 -239 141 -239 22 0 17 18 -22 68 -20 26 -51
80 -71 120 -19 39 -36 72 -38 72 -2 0 -7 -9 -10 -21z"/>
<path d="M5440 3420 c-17 -34 -52 -90 -76 -124 -36 -48 -42 -62 -29 -64 9 -2
27 5 39 17 30 28 114 171 118 200 6 47 -21 32 -52 -29z"/>
<path d="M4661 2644 c-36 -30 -44 -72 -12 -54 11 5 22 10 25 10 3 0 6 -49 6
-110 l0 -110 25 0 25 0 0 145 c0 136 -1 145 -19 145 -11 0 -33 -12 -50 -26z"/>
<path d="M4911 2651 c-28 -28 -36 -81 -17 -124 15 -36 28 -43 79 -39 18 2 23
-22 11 -52 -8 -21 -42 -21 -46 1 -2 9 -13 17 -25 18 -17 1 -23 -4 -23 -20 0
-57 92 -76 130 -28 20 25 21 38 18 124 -2 78 -7 101 -22 118 -25 27 -79 28
-105 2z m67 -33 c17 -17 15 -73 -3 -88 -22 -18 -37 0 -37 43 0 53 15 70 40 45z"/>
<path d="M5184 2649 c-16 -18 -19 -37 -19 -124 0 -121 12 -145 75 -145 55 0
74 26 78 111 5 86 -4 135 -29 160 -26 26 -80 25 -105 -2z m71 -29 c11 -17 15
-149 5 -175 -11 -28 -35 -33 -44 -9 -3 9 -6 49 -6 89 0 40 3 80 6 89 7 18 30
21 39 6z"/>
<path d="M5461 2644 c-25 -31 -27 -76 -6 -94 14 -12 14 -15 0 -30 -22 -25 -19
-96 5 -120 29 -29 94 -27 114 2 18 25 21 99 6 114 -8 8 -8 19 0 38 25 66 -3
116 -64 116 -25 0 -40 -7 -55 -26z m74 -54 c0 -44 -31 -56 -41 -16 -8 35 2 58
23 54 13 -2 18 -13 18 -38z m0 -125 c0 -33 -3 -40 -20 -40 -15 0 -21 8 -23 28
-5 39 5 59 25 55 14 -2 18 -13 18 -43z"/>
</g>
</svg>
